<?xml version="1.0" encoding="UTF-8" standalone="no"?><!DOCTYPE svg PUBLIC "-//W3C//DTD SVG 1.1//EN" "http://www.w3.org/Graphics/SVG/1.1/DTD/svg11.dtd"><svg width="100%" height="100%" viewBox="0 0 96 96" version="1.1" xmlns="http://www.w3.org/2000/svg" xmlns:xlink="http://www.w3.org/1999/xlink" xml:space="preserve" xmlns:serif="http://www.serif.com/" style="fill-rule:evenodd;clip-rule:evenodd;stroke-linejoin:round;stroke-miterlimit:1.41421;"><path id="vv" d="M23.712,23.244l0,-17.018c0,-3.436 2.785,-6.226 6.214,-6.226l39.014,0c3.429,0 6.213,2.79 6.213,6.226l0,17.026c4.82,5.059 8.169,11.529 9.4,18.43c1.447,8.105 0.007,16.675 -4.017,23.833c-1.478,2.629 -3.296,5.061 -5.383,7.232l0,17.027c0,3.436 -2.784,6.226 -6.213,6.226l-39.014,0c-3.429,0 -6.214,-2.79 -6.214,-6.226l0,-17.027c-2.062,-2.146 -3.862,-4.546 -5.33,-7.138c-2.147,-3.793 -3.561,-7.983 -4.205,-12.296c-1.844,-0.211 -3.279,-1.782 -3.279,-3.686l0,-3.254c0,-1.897 1.424,-3.464 3.259,-3.684c0.268,-1.831 0.68,-3.645 1.237,-5.42c1.645,-5.236 4.533,-10.065 8.318,-14.025Zm25.686,-3.118l-0.018,0c-5.83,0.016 -11.592,1.902 -16.274,5.31l-0.005,0.003l-0.045,0.033l-0.021,0.015l-0.031,0.023l-0.022,0.016l-0.043,0.032l-0.016,0.011c-5.595,4.144 -9.566,10.418 -10.844,17.328c-1.157,6.258 -0.105,12.896 2.937,18.464l0.013,0.023l0.016,0.029l0.02,0.037l0.004,0.007c0.027,0.049 0.054,0.097 0.081,0.146l0.011,0.02l0.016,0.028l0.023,0.04l0.007,0.013c3.055,5.403 7.952,9.74 13.691,12.098l0.009,0.004l0.052,0.022l0.019,0.007l0.045,0.019l0.021,0.008l0.071,0.029l0.004,0.001c6.497,2.603 13.971,2.619 20.469,0.063l0.014,-0.005l0.055,-0.022l0.021,-0.008c7.169,-2.851 13.04,-8.809 15.781,-16.061c2.561,-6.776 2.362,-14.529 -0.61,-21.201l-0.014,-0.031l-0.015,-0.033l-0.019,-0.044l-0.008,-0.018l-0.022,-0.046l-0.005,-0.013l-0.026,-0.056l-0.014,-0.031c-3.662,-7.981 -11.233,-14.066 -20.02,-15.759l-0.021,-0.004l-0.055,-0.01l-0.02,-0.004l-0.074,-0.014l-0.019,-0.003l-0.055,-0.011l-0.029,-0.005l-0.046,-0.008l-0.03,-0.006l-0.048,-0.008l-0.027,-0.005l-0.069,-0.012l-0.034,-0.006l-0.039,-0.007l-0.038,-0.006l-0.036,-0.006l-0.039,-0.007l-0.034,-0.005l-0.036,-0.006l-0.038,-0.006l-0.03,-0.005l-0.042,-0.007l-0.032,-0.005l-0.042,-0.007l-0.031,-0.005l-0.042,-0.006l-0.034,-0.006l-0.035,-0.005l-0.032,-0.005l-0.039,-0.006l-0.036,-0.005l-0.04,-0.006l-0.034,-0.005l-0.047,-0.006l-0.026,-0.004l-0.075,-0.011l-0.004,0l-0.075,-0.011l-0.012,-0.001l-0.071,-0.01l-0.006,-0.001c-1.233,-0.164 -2.476,-0.245 -3.736,-0.245Zm16.596,11.541c0.232,-0.211 0.586,-0.21 0.817,0.003c0.231,0.212 0.262,0.565 0.072,0.815c-4.892,6.432 -13.024,17.126 -17.055,22.427c-0.588,0.772 -1.494,1.235 -2.463,1.258c-0.969,0.022 -1.895,-0.398 -2.518,-1.142c-2.924,-3.494 -7.786,-9.304 -11.539,-13.788c-0.35,-0.419 -0.337,-1.033 0.032,-1.436c0.369,-0.403 0.979,-0.469 1.425,-0.155c3.832,2.694 8.337,5.862 10.802,7.595c1.078,0.758 2.536,0.667 3.511,-0.219c3.48,-3.159 11.627,-10.556 16.916,-15.358Z"/></svg>